<?xml version="1.0" encoding="utf-8"?>
<!-- Generator: Adobe Illustrator 22.0.1, SVG Export Plug-In . SVG Version: 6.00 Build 0)  -->
<svg version="1.1" id="Capa_1" xmlns="http://www.w3.org/2000/svg" xmlns:xlink="http://www.w3.org/1999/xlink" x="0px" y="0px"
	 viewBox="0 0 483.3 483.3" style="enable-background:new 0 0 483.3 483.3;" xml:space="preserve">
<style type="text/css">
	.st0{opacity:0.7;fill:#FFFFFF;}
</style>
<path class="st0" d="M109.6,446.5c-35.9,0-65.1-29.2-65.1-65.1V146.2c0-35.8,29.2-65,65.1-65h9.7V50.8c0-7.7,6.3-14,14-14h11.1
	c7.7,0,14,6.3,14,14v30.4H325V50.8c0-7.7,6.3-14,14-14H350c7.7,0,14,6.3,14,14v30.4h9.7c17.4,0,33.7,6.8,46,19.1
	c12.3,12.3,19,28.7,19,46.1v235c0,35.9-29.2,65.1-65.1,65.1H109.6z M83.5,381.5c0,14.4,11.7,26.1,26.1,26.1h264.1
	c13.8,0,25.1-10.7,26-24.2l0-1.9V252.6H83.5V381.5z M399.7,213.5v-67.1c0-14.4-11.7-26.1-26.1-26.1H364v3.2c0,7.7-6.3,14-14,14H339
	c-7.7,0-14-6.3-14-14v-3.2H158.4v3.2c0,7.7-6.3,14-14,14h-11.1c-7.7,0-14-6.3-14-14v-3.2h-9.7c-14.4,0-26.1,11.7-26.1,26.1v67.1
	H399.7z"/>
</svg>
