<?xml version="1.0" encoding="utf-8"?>
<!-- Generator: Adobe Illustrator 22.0.1, SVG Export Plug-In . SVG Version: 6.00 Build 0)  -->
<svg version="1.1" id="Capa_1" xmlns="http://www.w3.org/2000/svg" xmlns:xlink="http://www.w3.org/1999/xlink" x="0px" y="0px"
	 viewBox="0 0 336 46" style="enable-background:new 0 0 336 46;" xml:space="preserve">
<style type="text/css">
	.st0{fill:#91A1AA;}
</style>
<g>
	<g>
		<g>
			<path class="st0" d="M103.3,29.1H102v-5.5c0-1.2-0.2-2-0.5-2.6s-0.9-0.8-1.6-0.8c-0.4,0-0.7,0.1-1.1,0.2
				c-0.3,0.1-0.6,0.3-0.9,0.6s-0.5,0.6-0.8,0.9c-0.2,0.3-0.4,0.7-0.5,1.2v6.1h-1.3v-5.5c0-1.2-0.2-2-0.5-2.6s-0.9-0.8-1.6-0.8
				c-0.7,0-1.4,0.3-2,0.8c-0.6,0.5-1,1.2-1.3,2.1v6.1h-1.3v-9.9h1.2v2.2c0.4-0.8,0.9-1.4,1.6-1.8s1.4-0.6,2.2-0.6
				c0.8,0,1.5,0.2,2,0.7c0.5,0.5,0.8,1.1,0.9,1.8c0.9-1.7,2.2-2.6,3.8-2.6c0.5,0,1,0.1,1.4,0.3c0.4,0.2,0.7,0.5,0.9,0.9
				c0.2,0.4,0.4,0.8,0.5,1.4s0.2,1.1,0.2,1.8V29.1z"/>
			<path class="st0" d="M108.6,29.3c-0.5,0-1-0.1-1.4-0.2c-0.4-0.2-0.8-0.4-1.1-0.7c-0.3-0.3-0.5-0.6-0.7-1
				c-0.2-0.4-0.2-0.8-0.2-1.2c0-0.5,0.1-0.9,0.3-1.2c0.2-0.4,0.5-0.7,0.9-1s0.8-0.5,1.3-0.6c0.5-0.1,1.1-0.2,1.7-0.2
				c0.5,0,1,0,1.5,0.1c0.5,0.1,1,0.2,1.4,0.4v-0.9c0-0.9-0.3-1.6-0.8-2.1c-0.5-0.5-1.2-0.8-2-0.8c-0.5,0-1.1,0.1-1.6,0.3
				s-1.1,0.5-1.6,0.9l-0.5-0.9c0.6-0.4,1.3-0.8,1.9-1c0.6-0.2,1.2-0.3,1.9-0.3c1.2,0,2.2,0.3,2.9,1c0.7,0.7,1.1,1.7,1.1,2.9v4.5
				c0,0.4,0.2,0.5,0.5,0.5v1.1c-0.1,0-0.2,0-0.3,0c-0.1,0-0.2,0-0.2,0c-0.3,0-0.5-0.1-0.7-0.2s-0.3-0.4-0.4-0.7l0-0.8
				c-0.4,0.6-1,1-1.7,1.4C110,29.1,109.3,29.3,108.6,29.3z M108.9,28.3c0.6,0,1.1-0.1,1.7-0.4c0.6-0.2,1-0.6,1.3-1
				c0.1-0.1,0.2-0.2,0.2-0.4c0.1-0.1,0.1-0.3,0.1-0.4v-1.6c-0.4-0.2-0.9-0.3-1.4-0.4c-0.5-0.1-0.9-0.1-1.4-0.1
				c-0.9,0-1.7,0.2-2.3,0.6c-0.6,0.4-0.9,0.9-0.9,1.6c0,0.3,0.1,0.5,0.2,0.8c0.1,0.3,0.3,0.5,0.5,0.7c0.2,0.2,0.5,0.4,0.8,0.5
				C108.1,28.2,108.5,28.3,108.9,28.3z"/>
			<path class="st0" d="M121.4,20.3c-0.9,0-1.6,0.3-2.3,0.7c-0.6,0.5-1.1,1.1-1.4,1.9v6.2h-1.3v-9.9h1.2v2.4
				c0.3-0.7,0.8-1.3,1.4-1.7c0.6-0.5,1.2-0.7,1.8-0.7c0.1,0,0.2,0,0.3,0c0.1,0,0.2,0,0.2,0V20.3z"/>
			<path class="st0" d="M130.2,29.1l-3.7-5.1l-2.1,2v3.1h-1.3V15.2h1.3v9.4l5.6-5.4h1.5l-4.1,4.1l4.2,5.8H130.2z"/>
			<path class="st0" d="M137.5,29.3c-0.7,0-1.4-0.1-2-0.4c-0.6-0.3-1.1-0.6-1.6-1.1c-0.4-0.5-0.8-1-1-1.6c-0.2-0.6-0.4-1.3-0.4-2
				c0-0.7,0.1-1.4,0.4-2c0.2-0.6,0.6-1.2,1-1.6c0.4-0.5,1-0.8,1.6-1.1c0.6-0.3,1.3-0.4,2-0.4c0.7,0,1.4,0.1,2,0.4
				c0.6,0.3,1.1,0.6,1.6,1.1s0.8,1,1,1.6s0.4,1.3,0.4,1.9c0,0.1,0,0.2,0,0.3s0,0.2,0,0.2h-8.5c0,0.5,0.2,1,0.4,1.5
				c0.2,0.5,0.5,0.8,0.8,1.2s0.7,0.6,1.1,0.8c0.4,0.2,0.9,0.3,1.4,0.3c0.3,0,0.7,0,1-0.1c0.3-0.1,0.6-0.2,0.9-0.4s0.5-0.3,0.7-0.6
				c0.2-0.2,0.4-0.5,0.5-0.7l1.1,0.3c-0.2,0.4-0.4,0.7-0.6,1c-0.3,0.3-0.6,0.6-1,0.8c-0.4,0.2-0.8,0.4-1.2,0.5
				C138.4,29.2,137.9,29.3,137.5,29.3z M141.1,23.6c0-0.5-0.2-1-0.4-1.5c-0.2-0.4-0.5-0.8-0.8-1.1s-0.7-0.6-1.1-0.7
				c-0.4-0.2-0.9-0.3-1.4-0.3c-0.5,0-0.9,0.1-1.4,0.3c-0.4,0.2-0.8,0.4-1.1,0.7s-0.6,0.7-0.8,1.1c-0.2,0.4-0.3,0.9-0.4,1.4H141.1z"
				/>
			<path class="st0" d="M149,28.6c-0.1,0-0.2,0.1-0.3,0.2s-0.3,0.1-0.5,0.2s-0.4,0.1-0.6,0.2c-0.2,0.1-0.5,0.1-0.8,0.1
				c-0.3,0-0.5,0-0.8-0.1s-0.5-0.2-0.7-0.4c-0.2-0.2-0.3-0.4-0.5-0.6s-0.2-0.5-0.2-0.8v-7.1h-1.4v-1h1.4v-3.4h1.3v3.4h2.3v1H146V27
				c0,0.4,0.2,0.6,0.4,0.8s0.5,0.3,0.8,0.3c0.4,0,0.7-0.1,1-0.2c0.3-0.1,0.5-0.2,0.5-0.3L149,28.6z"/>
			<path class="st0" d="M150.5,17.1v-1.9h1.3v1.9H150.5z M150.5,29.1v-9.9h1.3v9.9H150.5z"/>
			<path class="st0" d="M163,29.1h-1.3v-5.5c0-1.2-0.2-2-0.5-2.6c-0.3-0.5-0.9-0.8-1.6-0.8c-0.4,0-0.8,0.1-1.1,0.2
				c-0.4,0.1-0.7,0.3-1.1,0.6s-0.6,0.6-0.9,0.9c-0.2,0.3-0.4,0.7-0.6,1.1v6.1h-1.3v-9.9h1.2v2.2c0.2-0.4,0.5-0.7,0.8-1
				c0.3-0.3,0.6-0.6,1-0.8c0.4-0.2,0.8-0.4,1.2-0.5c0.4-0.1,0.8-0.2,1.3-0.2c0.6,0,1,0.1,1.4,0.3c0.4,0.2,0.7,0.5,0.9,0.9
				c0.2,0.4,0.4,0.8,0.5,1.4c0.1,0.5,0.2,1.1,0.2,1.8V29.1z"/>
			<path class="st0" d="M169.7,29.2c-0.7,0-1.3-0.1-1.9-0.4c-0.6-0.3-1.1-0.7-1.5-1.1s-0.7-1-1-1.6s-0.3-1.2-0.3-1.9
				c0-0.7,0.1-1.3,0.3-2s0.5-1.2,0.9-1.6c0.4-0.5,0.9-0.8,1.5-1.1c0.6-0.3,1.2-0.4,1.9-0.4c0.9,0,1.6,0.2,2.2,0.6
				c0.6,0.4,1.2,1,1.6,1.6v-2.1h1.2v10c0,0.7-0.1,1.3-0.4,1.8s-0.6,1-1,1.3c-0.4,0.4-1,0.6-1.6,0.8c-0.6,0.2-1.2,0.3-1.9,0.3
				c-1.1,0-2-0.2-2.7-0.6c-0.7-0.4-1.3-1-1.7-1.6l0.8-0.6c0.4,0.6,0.9,1.1,1.6,1.4c0.6,0.3,1.3,0.4,2.1,0.4c0.5,0,0.9-0.1,1.4-0.2
				c0.4-0.1,0.8-0.3,1.1-0.6c0.3-0.3,0.6-0.6,0.8-1c0.2-0.4,0.3-0.9,0.3-1.4v-2c-0.4,0.6-0.9,1.1-1.6,1.5S170.4,29.2,169.7,29.2z
				 M170,28.2c0.4,0,0.8-0.1,1.1-0.2c0.4-0.1,0.7-0.3,1-0.6c0.3-0.2,0.5-0.5,0.8-0.8c0.2-0.3,0.3-0.6,0.4-0.9v-3.1
				c-0.1-0.4-0.3-0.7-0.6-1c-0.2-0.3-0.5-0.6-0.8-0.8c-0.3-0.2-0.6-0.4-1-0.5c-0.3-0.1-0.7-0.2-1.1-0.2c-0.6,0-1.1,0.1-1.5,0.4
				c-0.4,0.2-0.8,0.5-1.1,0.9c-0.3,0.4-0.5,0.8-0.7,1.3c-0.2,0.5-0.2,1-0.2,1.5c0,0.5,0.1,1,0.3,1.5s0.5,0.9,0.8,1.3
				c0.3,0.4,0.7,0.6,1.2,0.9C169,28,169.5,28.2,170,28.2z"/>
			<path class="st0" d="M182.3,32.2c0.1,0,0.1,0,0.2,0c0.1,0,0.1,0,0.2,0c0.1,0,0.3,0,0.4,0c0.1,0,0.3-0.1,0.3-0.1
				c0.1,0,0.1-0.1,0.2-0.2c0.1-0.1,0.2-0.2,0.3-0.4c0.1-0.2,0.2-0.5,0.4-0.9s0.4-0.9,0.6-1.5l-4.3-9.9h1.4l3.7,8.7l3.4-8.7h1.2
				L185.1,32c-0.2,0.5-0.4,0.8-0.8,1c-0.3,0.2-0.8,0.3-1.4,0.3c-0.2,0-0.5,0-0.6-0.1V32.2z"/>
			<path class="st0" d="M195.8,24.1c0-0.7,0.1-1.4,0.4-2c0.2-0.6,0.6-1.2,1-1.6c0.4-0.5,1-0.8,1.6-1.1c0.6-0.3,1.3-0.4,2-0.4
				c0.9,0,1.8,0.2,2.5,0.6c0.7,0.4,1.2,1,1.6,1.7l-1.3,0.4c-0.3-0.5-0.7-0.9-1.2-1.2c-0.5-0.3-1-0.4-1.7-0.4c-0.5,0-1,0.1-1.4,0.3
				s-0.8,0.5-1.1,0.8c-0.3,0.3-0.6,0.8-0.8,1.2c-0.2,0.5-0.3,1-0.3,1.6c0,0.6,0.1,1.1,0.3,1.6c0.2,0.5,0.5,0.9,0.8,1.3
				c0.3,0.4,0.7,0.6,1.2,0.9s0.9,0.3,1.4,0.3c0.3,0,0.6,0,0.9-0.1c0.3-0.1,0.6-0.2,0.9-0.4s0.5-0.3,0.7-0.5s0.3-0.4,0.4-0.6l1.3,0.4
				c-0.1,0.4-0.3,0.7-0.6,1c-0.3,0.3-0.6,0.6-0.9,0.8c-0.4,0.2-0.8,0.4-1.2,0.5c-0.4,0.1-0.9,0.2-1.4,0.2c-0.7,0-1.4-0.1-2-0.4
				c-0.6-0.3-1.1-0.6-1.6-1.1s-0.8-1-1-1.6C195.9,25.5,195.8,24.8,195.8,24.1z"/>
			<path class="st0" d="M211.1,29.3c-0.7,0-1.4-0.1-2-0.4c-0.6-0.3-1.1-0.6-1.6-1.1s-0.8-1-1-1.6s-0.4-1.3-0.4-2
				c0-0.7,0.1-1.4,0.4-2c0.2-0.6,0.6-1.2,1-1.6c0.4-0.5,1-0.8,1.6-1.1c0.6-0.3,1.3-0.4,2-0.4s1.4,0.1,2,0.4c0.6,0.3,1.1,0.7,1.6,1.1
				c0.4,0.5,0.8,1,1,1.6c0.2,0.6,0.4,1.3,0.4,2c0,0.7-0.1,1.3-0.4,2c-0.2,0.6-0.6,1.2-1,1.6s-1,0.8-1.6,1.1
				C212.4,29.2,211.8,29.3,211.1,29.3z M207.5,24.2c0,0.6,0.1,1.1,0.3,1.6c0.2,0.5,0.4,0.9,0.8,1.3c0.3,0.4,0.7,0.6,1.1,0.8
				s0.9,0.3,1.4,0.3s1-0.1,1.4-0.3c0.4-0.2,0.8-0.5,1.2-0.9c0.3-0.4,0.6-0.8,0.8-1.3c0.2-0.5,0.3-1,0.3-1.6c0-0.5-0.1-1.1-0.3-1.6
				c-0.2-0.5-0.5-0.9-0.8-1.3c-0.3-0.4-0.7-0.6-1.1-0.9c-0.4-0.2-0.9-0.3-1.4-0.3s-1,0.1-1.4,0.3c-0.4,0.2-0.8,0.5-1.1,0.9
				c-0.3,0.4-0.6,0.8-0.8,1.3S207.5,23.6,207.5,24.2z"/>
			<path class="st0" d="M232.9,29.1h-1.3v-5.5c0-1.2-0.2-2-0.5-2.6s-0.9-0.8-1.6-0.8c-0.4,0-0.7,0.1-1.1,0.2
				c-0.3,0.1-0.6,0.3-0.9,0.6c-0.3,0.3-0.5,0.6-0.8,0.9c-0.2,0.3-0.4,0.7-0.5,1.2v6.1h-1.3v-5.5c0-1.2-0.2-2-0.5-2.6
				s-0.9-0.8-1.6-0.8c-0.7,0-1.4,0.3-2,0.8c-0.6,0.5-1,1.2-1.3,2.1v6.1h-1.3v-9.9h1.2v2.2c0.4-0.8,0.9-1.4,1.6-1.8s1.4-0.6,2.2-0.6
				c0.8,0,1.5,0.2,2,0.7s0.8,1.1,0.9,1.8c0.9-1.7,2.2-2.6,3.8-2.6c0.5,0,1,0.1,1.4,0.3c0.4,0.2,0.7,0.5,0.9,0.9
				c0.2,0.4,0.4,0.8,0.5,1.4c0.1,0.5,0.2,1.1,0.2,1.8V29.1z"/>
			<path class="st0" d="M238.6,29.3c-1,0-1.8-0.4-2.4-1.1c-0.5-0.7-0.8-1.8-0.8-3.2v-5.8h1.3v5.6c0,2.2,0.8,3.4,2.3,3.4
				c0.4,0,0.8-0.1,1.1-0.2s0.7-0.3,1-0.6s0.6-0.5,0.8-0.9c0.2-0.3,0.4-0.7,0.6-1.1v-6.2h1.3v8.2c0,0.4,0.2,0.5,0.5,0.5v1.1
				c-0.3,0-0.4,0.1-0.5,0.1c-0.3,0-0.5-0.1-0.8-0.3c-0.2-0.2-0.3-0.4-0.3-0.7v-1.4c-0.4,0.8-1,1.4-1.8,1.8S239.5,29.3,238.6,29.3z"
				/>
			<path class="st0" d="M255.2,29.1h-1.3v-5.5c0-1.2-0.2-2-0.5-2.6s-0.9-0.8-1.6-0.8c-0.4,0-0.8,0.1-1.1,0.2
				c-0.4,0.1-0.7,0.3-1.1,0.6c-0.3,0.3-0.6,0.6-0.9,0.9c-0.2,0.3-0.4,0.7-0.6,1.1v6.1h-1.3v-9.9h1.2v2.2c0.2-0.4,0.5-0.7,0.8-1
				c0.3-0.3,0.6-0.6,1-0.8s0.8-0.4,1.2-0.5c0.4-0.1,0.8-0.2,1.3-0.2c0.6,0,1,0.1,1.4,0.3c0.4,0.2,0.7,0.5,0.9,0.9
				c0.2,0.4,0.4,0.8,0.5,1.4s0.2,1.1,0.2,1.8V29.1z"/>
			<path class="st0" d="M257.9,17.1v-1.9h1.3v1.9H257.9z M257.9,29.1v-9.9h1.3v9.9H257.9z"/>
			<path class="st0" d="M261.4,24.1c0-0.7,0.1-1.4,0.4-2c0.2-0.6,0.6-1.2,1-1.6c0.4-0.5,1-0.8,1.6-1.1c0.6-0.3,1.3-0.4,2-0.4
				c0.9,0,1.8,0.2,2.5,0.6c0.7,0.4,1.2,1,1.6,1.7l-1.3,0.4c-0.3-0.5-0.7-0.9-1.2-1.2c-0.5-0.3-1-0.4-1.7-0.4c-0.5,0-1,0.1-1.4,0.3
				s-0.8,0.5-1.1,0.8c-0.3,0.3-0.6,0.8-0.8,1.2c-0.2,0.5-0.3,1-0.3,1.6c0,0.6,0.1,1.1,0.3,1.6c0.2,0.5,0.5,0.9,0.8,1.3
				c0.3,0.4,0.7,0.6,1.2,0.9s0.9,0.3,1.4,0.3c0.3,0,0.6,0,0.9-0.1c0.3-0.1,0.6-0.2,0.9-0.4s0.5-0.3,0.7-0.5s0.3-0.4,0.4-0.6l1.3,0.4
				c-0.1,0.4-0.3,0.7-0.6,1c-0.3,0.3-0.6,0.6-0.9,0.8c-0.4,0.2-0.8,0.4-1.2,0.5c-0.4,0.1-0.9,0.2-1.4,0.2c-0.7,0-1.4-0.1-2-0.4
				c-0.6-0.3-1.1-0.6-1.6-1.1s-0.8-1-1-1.6C261.5,25.5,261.4,24.8,261.4,24.1z"/>
			<path class="st0" d="M275.1,29.3c-0.5,0-1-0.1-1.4-0.2c-0.4-0.2-0.8-0.4-1.1-0.7c-0.3-0.3-0.5-0.6-0.7-1s-0.2-0.8-0.2-1.2
				c0-0.5,0.1-0.9,0.3-1.2s0.5-0.7,0.9-1s0.8-0.5,1.3-0.6c0.5-0.1,1.1-0.2,1.7-0.2c0.5,0,1,0,1.5,0.1c0.5,0.1,1,0.2,1.4,0.4v-0.9
				c0-0.9-0.3-1.6-0.8-2.1s-1.2-0.8-2-0.8c-0.5,0-1.1,0.1-1.6,0.3c-0.5,0.2-1.1,0.5-1.6,0.9l-0.5-0.9c0.6-0.4,1.3-0.8,1.9-1
				s1.2-0.3,1.9-0.3c1.2,0,2.2,0.3,2.9,1c0.7,0.7,1.1,1.7,1.1,2.9v4.5c0,0.4,0.2,0.5,0.5,0.5v1.1c-0.1,0-0.2,0-0.3,0
				c-0.1,0-0.2,0-0.2,0c-0.3,0-0.5-0.1-0.7-0.2c-0.2-0.2-0.3-0.4-0.4-0.7l0-0.8c-0.4,0.6-1,1-1.7,1.4
				C276.5,29.1,275.8,29.3,275.1,29.3z M275.4,28.3c0.6,0,1.1-0.1,1.7-0.4c0.6-0.2,1-0.6,1.3-1c0.1-0.1,0.2-0.2,0.2-0.4
				c0.1-0.1,0.1-0.3,0.1-0.4v-1.6c-0.4-0.2-0.9-0.3-1.4-0.4c-0.5-0.1-0.9-0.1-1.4-0.1c-0.9,0-1.7,0.2-2.3,0.6
				c-0.6,0.4-0.9,0.9-0.9,1.6c0,0.3,0.1,0.5,0.2,0.8c0.1,0.3,0.3,0.5,0.5,0.7c0.2,0.2,0.5,0.4,0.8,0.5S275,28.3,275.4,28.3z"/>
			<path class="st0" d="M282.3,24.1c0-0.7,0.1-1.4,0.4-2c0.2-0.6,0.6-1.2,1-1.6c0.4-0.5,1-0.8,1.6-1.1c0.6-0.3,1.3-0.4,2-0.4
				c0.9,0,1.8,0.2,2.5,0.6c0.7,0.4,1.2,1,1.6,1.7l-1.3,0.4c-0.3-0.5-0.7-0.9-1.2-1.2c-0.5-0.3-1-0.4-1.7-0.4c-0.5,0-1,0.1-1.4,0.3
				s-0.8,0.5-1.1,0.8c-0.3,0.3-0.6,0.8-0.8,1.2c-0.2,0.5-0.3,1-0.3,1.6c0,0.6,0.1,1.1,0.3,1.6c0.2,0.5,0.5,0.9,0.8,1.3
				c0.3,0.4,0.7,0.6,1.2,0.9s0.9,0.3,1.4,0.3c0.3,0,0.6,0,0.9-0.1c0.3-0.1,0.6-0.2,0.9-0.4s0.5-0.3,0.7-0.5s0.3-0.4,0.4-0.6l1.3,0.4
				c-0.1,0.4-0.3,0.7-0.6,1c-0.3,0.3-0.6,0.6-0.9,0.8c-0.4,0.2-0.8,0.4-1.2,0.5c-0.4,0.1-0.9,0.2-1.4,0.2c-0.7,0-1.4-0.1-2-0.4
				c-0.6-0.3-1.1-0.6-1.6-1.1s-0.8-1-1-1.6C282.4,25.5,282.3,24.8,282.3,24.1z"/>
			<path class="st0" d="M293.4,17.1v-1.9h1.3v1.9H293.4z M293.4,29.1v-9.9h1.3v9.9H293.4z"/>
			<path class="st0" d="M301.8,29.3c-0.7,0-1.4-0.1-2-0.4c-0.6-0.3-1.1-0.6-1.6-1.1s-0.8-1-1-1.6s-0.4-1.3-0.4-2
				c0-0.7,0.1-1.4,0.4-2c0.2-0.6,0.6-1.2,1-1.6c0.4-0.5,1-0.8,1.6-1.1c0.6-0.3,1.3-0.4,2-0.4s1.4,0.1,2,0.4c0.6,0.3,1.1,0.7,1.6,1.1
				c0.4,0.5,0.8,1,1,1.6c0.2,0.6,0.4,1.3,0.4,2c0,0.7-0.1,1.3-0.4,2c-0.2,0.6-0.6,1.2-1,1.6s-1,0.8-1.6,1.1
				C303.1,29.2,302.5,29.3,301.8,29.3z M298.2,24.2c0,0.6,0.1,1.1,0.3,1.6c0.2,0.5,0.4,0.9,0.8,1.3c0.3,0.4,0.7,0.6,1.1,0.8
				s0.9,0.3,1.4,0.3s1-0.1,1.4-0.3c0.4-0.2,0.8-0.5,1.2-0.9c0.3-0.4,0.6-0.8,0.8-1.3c0.2-0.5,0.3-1,0.3-1.6c0-0.5-0.1-1.1-0.3-1.6
				c-0.2-0.5-0.5-0.9-0.8-1.3c-0.3-0.4-0.7-0.6-1.1-0.9c-0.4-0.2-0.9-0.3-1.4-0.3s-1,0.1-1.4,0.3c-0.4,0.2-0.8,0.5-1.1,0.9
				c-0.3,0.4-0.6,0.8-0.8,1.3S298.2,23.6,298.2,24.2z M301.9,17.3L301,17l1.1-1.8h1.4L301.9,17.3z"/>
			<path class="st0" d="M317.1,29.1h-1.3v-5.5c0-1.2-0.2-2-0.5-2.6s-0.9-0.8-1.6-0.8c-0.4,0-0.8,0.1-1.1,0.2
				c-0.4,0.1-0.7,0.3-1.1,0.6c-0.3,0.3-0.6,0.6-0.9,0.9c-0.2,0.3-0.4,0.7-0.6,1.1v6.1h-1.3v-9.9h1.2v2.2c0.2-0.4,0.5-0.7,0.8-1
				c0.3-0.3,0.6-0.6,1-0.8s0.8-0.4,1.2-0.5c0.4-0.1,0.8-0.2,1.3-0.2c0.6,0,1,0.1,1.4,0.3c0.4,0.2,0.7,0.5,0.9,0.9
				c0.2,0.4,0.4,0.8,0.5,1.4s0.2,1.1,0.2,1.8V29.1z"/>
		</g>
	</g>
	<g>
		<path class="st0" d="M27.8,13.5h-3.1c-2.6,0-4.5,0.4-5.6,1.6c-1.2,1.2-1.6,3.2-1.6,6.2l0,3.1c0,3.3,0.4,5.3,1.6,6.5
			c1.2,1.2,3.2,1.5,6.1,1.5h2.1c3.4,0,5.3-0.3,6.6-1.4c1.2-1.1,1.5-2.8,1.5-5.3v-0.3h-5.3l0,0.3c0,0.1,0,0.1,0,0.2
			c0,0.8-0.1,1.2-0.5,1.5c-0.4,0.3-1.1,0.5-2.5,0.5h-1.3c-1.3,0-2-0.2-2.4-0.8c-0.4-0.6-0.6-1.6-0.6-3.2l0-2.2
			c0-1.6,0.2-2.6,0.6-3.1c0.4-0.5,1.2-0.7,2.4-0.7l1.3,0c1.4,0,2.2,0.3,2.5,0.6c0.4,0.3,0.5,0.9,0.5,1.6l0,0.3h5.3v-0.3
			c0-2.5-0.3-4.2-1.5-5.2C32.7,13.9,30.8,13.5,27.8,13.5z"/>
		<polygon class="st0" points="37.5,32.5 37.8,32.5 42.6,32.5 42.6,13.7 37.5,13.7 		"/>
		<path class="st0" d="M51.1,18.7c0.4-0.5,1.2-0.7,2.4-0.7h1.3c1.4,0,2.2,0.3,2.5,0.6c0.4,0.3,0.5,0.9,0.5,1.6l0,0.3h5.3v-0.3
			c0-2.5-0.3-4.2-1.5-5.2c-1.2-1.1-3.1-1.4-6.1-1.4h-3.1c-2.6,0-4.5,0.4-5.6,1.6c-1.2,1.2-1.6,3.2-1.6,6.2v3.1
			c0,3.3,0.4,5.3,1.7,6.5c1.2,1.2,3.2,1.5,6.1,1.5h2.1c3.4,0,5.3-0.3,6.6-1.4c1.2-1.1,1.5-2.8,1.5-5.3v-0.3h-5.3l0,0.3
			c0,0.1,0,0.1,0,0.2c0,0.8-0.1,1.2-0.5,1.5C57,27.8,56.2,28,54.8,28h-1.3c-1.3,0-2-0.2-2.4-0.8c-0.4-0.6-0.6-1.6-0.6-3.2v-2.2
			C50.4,20.2,50.6,19.2,51.1,18.7z"/>
	</g>
	<g>
		<path class="st0" d="M75.7,35.3v-25h0.9v25H75.7z"/>
	</g>
</g>
</svg>
