<?xml version="1.0" encoding="utf-8"?>
<!-- Generator: Adobe Illustrator 22.0.1, SVG Export Plug-In . SVG Version: 6.00 Build 0)  -->
<svg version="1.1" id="Logo_FIXED" xmlns="http://www.w3.org/2000/svg" xmlns:xlink="http://www.w3.org/1999/xlink" x="0px" y="0px"
	 viewBox="0 0 400 400" style="enable-background:new 0 0 400 400;" xml:space="preserve">
<style type="text/css">
	.st0{fill:#0bd0d9;}
</style>
<title>Twitter_Logo_Blue</title>
<g>
	<g>
		<path class="st0" d="M144.7,121.9c0,11.9-8.8,21.6-23.3,21.6c-13.7,0-22.5-9.7-22.5-21.6c0-12.2,9.1-21.6,23-21.6
			C135.8,100.3,144.4,109.7,144.7,121.9z M100,299.7V160.6h43.3v139.1L100,299.7L100,299.7z"/>
		<path class="st0" d="M169.1,205c0-17.4-0.6-31.9-1.1-44.4h37.6l2,19.4h0.9c5.7-9.1,19.6-22.5,43-22.5c28.5,0,49.8,19.1,49.8,60
			v82.2h-43.3v-77.1c0-17.9-6.3-30.2-21.9-30.2c-11.9,0-19.1,8.2-22.2,16.2c-1.1,2.8-1.4,6.8-1.4,10.8v80.2h-43.3V205z"/>
	</g>
</g>
</svg>
