<?xml version="1.0" encoding="utf-8"?>
<!-- Generator: Adobe Illustrator 22.0.1, SVG Export Plug-In . SVG Version: 6.00 Build 0)  -->
<svg version="1.1" id="Capa_1" xmlns="http://www.w3.org/2000/svg" xmlns:xlink="http://www.w3.org/1999/xlink" x="0px" y="0px"
	 viewBox="0 0 84 37.2" style="enable-background:new 0 0 84 37.2;" xml:space="preserve">
<style type="text/css">
	.st0{fill:#44546A;}
</style>
<g>
	<path class="st0" d="M19.6,1.6h-5.5c-4.7,0-8,0.7-10.1,2.9C2,6.7,1.3,10.3,1.3,15.7l0,5.5c0,5.9,0.7,9.5,2.9,11.7
		c2.2,2.2,5.7,2.7,10.9,2.7h3.7c6,0,9.6-0.6,11.7-2.4c2.2-1.9,2.6-4.9,2.6-9.4v-0.5h-9.5l0,0.5c0,0.1,0,0.2,0,0.3
		c0,1.4-0.2,2.1-0.8,2.6c-0.6,0.5-2,0.8-4.6,0.8H16c-2.3,0-3.6-0.4-4.3-1.4c-0.8-1-1.1-2.8-1.1-5.7l0-3.9c0-2.9,0.4-4.6,1.1-5.5
		c0.8-0.9,2.1-1.2,4.3-1.2l2.3,0c2.5,0,3.9,0.5,4.5,1.1c0.7,0.6,0.8,1.5,0.9,2.8l0,0.5h9.5v-0.5c0-4.4-0.6-7.4-2.7-9.4
		C28.4,2.3,25,1.6,19.6,1.6z"/>
	<polygon class="st0" points="36.9,35.6 37.4,35.6 46.1,35.6 46.1,2 36.9,2 	"/>
	<path class="st0" d="M61.2,10.9c0.8-0.9,2.1-1.2,4.3-1.2h2.3c2.5,0,3.9,0.5,4.5,1.1c0.7,0.6,0.8,1.5,0.9,2.8l0,0.5h9.5v-0.5
		c0-4.4-0.6-7.4-2.7-9.4c-2.1-1.9-5.5-2.5-10.9-2.5h-5.5c-4.7,0-8,0.7-10.1,2.9c-2.1,2.2-2.8,5.7-2.8,11.1v5.5
		c0,5.9,0.7,9.5,2.9,11.7c2.2,2.2,5.7,2.7,10.9,2.7h3.7c6,0,9.6-0.6,11.7-2.4c2.2-1.9,2.6-4.9,2.6-9.4v-0.5h-9.5l0,0.5
		c0,0.1,0,0.2,0,0.3c0,1.4-0.2,2.1-0.8,2.6c-0.6,0.5-2,0.8-4.6,0.8h-2.3c-2.3,0-3.6-0.4-4.3-1.4c-0.8-1-1.1-2.8-1.1-5.7v-3.9
		C60,13.5,60.4,11.8,61.2,10.9z"/>
</g>
</svg>
