<svg xmlns="http://www.w3.org/2000/svg" viewBox="0 0 144.7 144.7"><title>rocket</title><rect x="18.6" y="124.3" width="16.6" height="5.29" transform="translate(-101.1 44.7) rotate(-45)" style="fill:#fff"/><rect x="40.1" y="145.8" width="16.6" height="5.29" transform="translate(-110 66.2) rotate(-45)" style="fill:#fff"/><path d="M130.6,59.7a14.9,14.9,0,0,1-10.5-25.5,14.8,14.8,0,0,1,21.1,0,14.6,14.6,0,0,1,4.4,10.6,14.9,14.9,0,0,1-15,14.9Zm0-24.6a9.7,9.7,0,0,0-6.8,2.8,9.9,9.9,0,0,0-2.8,6.9,9.5,9.5,0,0,0,2.8,6.8,9.5,9.5,0,0,0,13.7,0,9.5,9.5,0,0,0,2.8-6.8,9.9,9.9,0,0,0-2.8-6.9A9.8,9.8,0,0,0,130.6,35.1Z" transform="translate(-19.2 -11.5)" style="fill:#fff"/><path d="M97.9,150.8l-1-24.8-7.1,7a2.5,2.5,0,0,1-1.8.8,2.7,2.7,0,0,1-1.9-.8l-3.9-3.8L65.9,139.8a2.5,2.5,0,0,1-1.5.5,2.5,2.5,0,0,1-1.8-.8L35.9,112.9a2.9,2.9,0,0,1-.3-3.4L46.3,93.2l-3.9-3.9a2.7,2.7,0,0,1,0-3.7l7-7.1-24.8-1-1.9-4.8L46.4,49l1.6-.8,37.7-5.9L96.2,31.8a72.7,72.7,0,0,1,26.1-16.3,66.2,66.2,0,0,1,22.1-4A58.1,58.1,0,0,1,160,13.6a2.7,2.7,0,0,1,1.8,1.9,61.6,61.6,0,0,1-1.9,37.6,72.5,72.5,0,0,1-16.2,26.1L133.1,89.7l-5.9,37.7-.8,1.7-23.6,23.6Zm4.1-29.9,1,24.1,19.1-19.1,4.7-29.8-5.4,5.3-3.7-3.7,22.2-22.2c9.3-9.3,23.3-31.6,17.3-56.8v-.4h-.4a56.8,56.8,0,0,0-12.4-1.4c-18.9,0-35.7,10.1-44.3,18.7L77.7,57.8,74,54l5.4-5.4L49.6,53.3,30.4,72.5l24.1,1,9.1-9.1,3.7,3.8L48,87.5l18.1,18.1,40.3-40.4,3.8,3.8L69.9,109.3,88,127.4l19.3-19.3,3.7,3.8ZM41.2,110.6l23.6,23.6,13.6-8.9L66.1,113.1l-2.8,2.7-3.7-3.7,2.8-2.8L50.1,97Z" transform="translate(-19.2 -11.5)" style="fill:#fff"/><rect x="19.6" y="137.4" width="30.6" height="5.29" transform="translate(-108 54.2) rotate(-45)" style="fill:#fff"/></svg>