<?xml version="1.0" encoding="utf-8"?>
<!-- Generator: Adobe Illustrator 22.0.1, SVG Export Plug-In . SVG Version: 6.00 Build 0)  -->
<svg version="1.1" id="Capa_1" xmlns="http://www.w3.org/2000/svg" xmlns:xlink="http://www.w3.org/1999/xlink" x="0px" y="0px"
	 viewBox="0 0 400 400" style="enable-background:new 0 0 400 400;" xml:space="preserve">
<style type="text/css">
	.st0{fill:#0BD0D9;}
</style>
<title>search</title>
<path class="st0" d="M279.3,303.1c-3.6,0-7.1-1.5-9.5-4.2l-36.1-36.1c-13.6,9.2-29.9,14.4-46.4,14.7c-44.3,0-80.3-36-80.3-80.3
	c0-44.3,36-80.3,80.3-80.3c21.4,0,41.6,8.4,56.7,23.5c15.2,15.2,23.5,35.3,23.5,56.8c-0.2,16.4-5.4,32.8-14.7,46.4l36.2,36.2
	c5.2,5.3,5.2,13.9,0,19.1l-0.1,0.1c-2.5,2.4-5.8,3.8-9.2,4C279.6,303.1,279.4,303.1,279.3,303.1z M187.3,144.2
	c-29.2,0-53,23.8-53,53s23.8,53,53,53s53-23.8,53-53S216.5,144.2,187.3,144.2z"/>
</svg>
