<?xml version="1.0" encoding="utf-8"?>
<!-- Generator: Adobe Illustrator 22.0.1, SVG Export Plug-In . SVG Version: 6.00 Build 0)  -->
<svg version="1.1" id="Capa_1" xmlns="http://www.w3.org/2000/svg" xmlns:xlink="http://www.w3.org/1999/xlink" x="0px" y="0px"
	 viewBox="0 0 58 42.3" style="enable-background:new 0 0 58 42.3;" xml:space="preserve">
<style type="text/css">
	.st0{fill:#FFFFFF;}
</style>
<g>
	<path class="st0" d="M55.2,27.7L52,9.4c-0.1-0.4-0.3-0.8-0.5-1c0-0.1-0.1-0.2-0.2-0.3c-0.2-0.2-0.4-0.3-0.7-0.3
		c-0.3-0.1-0.6-0.1-0.9-0.1l-25.4,4.5c-0.3,0.1-0.6,0.2-0.8,0.4c-0.2,0.1-0.5,0.3-0.6,0.5c-0.1,0.1-0.1,0.2-0.1,0.3
		c-0.2,0.4-0.2,0.7-0.1,1.1l3.2,18.2c0.1,0.5,0.4,1,0.8,1.3c0.3,0.2,0.7,0.4,1.1,0.4c0.1,0,0.2,0,0.4,0L53.6,30h0
		C54.7,29.8,55.4,28.7,55.2,27.7z M48,10.1l-9.3,9.8l-12.1-6L48,10.1z M27.8,32.5l-3-17.3L38,21.8c0.3,0.1,0.5,0.2,0.8,0.2
		c0.5,0,0.9-0.2,1.3-0.6l10.1-10.6l3,17.3L27.8,32.5z"/>
	<path class="st0" d="M21,27.2H3.8c-0.6,0-1,0.4-1,1s0.4,1,1,1H21c0.6,0,1-0.4,1-1S21.5,27.2,21,27.2z"/>
	<path class="st0" d="M15.2,20.4H21c0.6,0,1-0.4,1-1s-0.4-1-1-1h-5.7c-0.6,0-1,0.4-1,1S14.7,20.4,15.2,20.4z"/>
	<path class="st0" d="M9.5,24.8H21c0.6,0,1-0.4,1-1s-0.4-1-1-1H9.5c-0.6,0-1,0.4-1,1S9,24.8,9.5,24.8z"/>
</g>
</svg>
